<?xml version="1.0" encoding="UTF-8"?>
<svg id="Layer_1" xmlns="http://www.w3.org/2000/svg" version="1.1" viewBox="0 0 1989 3284.14">
  <!-- Generator: Adobe Illustrator 29.5.1, SVG Export Plug-In . SVG Version: 2.1.0 Build 141)  -->
  <defs>
    <style>
      .st0 {
        font-size: 21.88px;
        text-decoration: underline;
      }

      .st0, .st1, .st2, .st3, .st4, .st5 {
        fill: #fff;
      }

      .st0, .st4 {
        font-family: Helvetica-Bold, Helvetica;
        font-weight: 700;
      }

      .st1 {
        font-size: 17.19px;
      }

      .st1, .st2 {
        font-family: Helvetica, Helvetica;
      }

      .st1, .st2, .st4 {
        isolation: isolate;
      }

      .st6 {
        fill: #521014;
      }

      .st6, .st7, .st8, .st3, .st9, .st10, .st11, .st12, .st13, .st5 {
        stroke-miterlimit: 4;
      }

      .st6, .st7, .st8, .st9, .st10, .st11, .st12, .st13, .st5 {
        stroke: #fff;
      }

      .st6, .st10, .st11, .st12 {
        stroke-width: .78px;
      }

      .st2 {
        font-size: 18.75px;
      }

      .st14 {
        fill: #231f20;
      }

      .st7, .st8 {
        stroke-width: 2.34px;
      }

      .st7, .st9, .st13 {
        fill: none;
      }

      .st15 {
        letter-spacing: .88em;
      }

      .st8 {
        fill: #333132;
      }

      .st16 {
        letter-spacing: .37em;
      }

      .st17 {
        letter-spacing: .37em;
      }

      .st18 {
        letter-spacing: .37em;
      }

      .st19 {
        letter-spacing: .39em;
      }

      .st20 {
        letter-spacing: .39em;
      }

      .st21 {
        letter-spacing: .37em;
      }

      .st22 {
        letter-spacing: .37em;
      }

      .st23 {
        letter-spacing: .39em;
      }

      .st24 {
        letter-spacing: .4em;
      }

      .st25 {
        letter-spacing: .4em;
      }

      .st26 {
        letter-spacing: .4em;
      }

      .st27 {
        letter-spacing: .4em;
      }

      .st28 {
        letter-spacing: .42em;
      }

      .st29 {
        letter-spacing: .42em;
      }

      .st30 {
        letter-spacing: .42em;
      }

      .st31 {
        letter-spacing: .42em;
      }

      .st32 {
        letter-spacing: .44em;
      }

      .st33 {
        letter-spacing: .3em;
      }

      .st34 {
        letter-spacing: .33em;
      }

      .st35 {
        letter-spacing: .33em;
      }

      .st36 {
        letter-spacing: .33em;
      }

      .st37 {
        letter-spacing: .33em;
      }

      .st38 {
        letter-spacing: .3em;
      }

      .st39 {
        letter-spacing: .32em;
      }

      .st40 {
        letter-spacing: .32em;
      }

      .st41 {
        letter-spacing: .34em;
      }

      .st42 {
        letter-spacing: .34em;
      }

      .st43 {
        letter-spacing: .34em;
      }

      .st44 {
        letter-spacing: .34em;
      }

      .st45 {
        letter-spacing: .33em;
      }

      .st46 {
        letter-spacing: .33em;
      }

      .st47 {
        letter-spacing: .34em;
      }

      .st48 {
        letter-spacing: .35em;
      }

      .st49 {
        letter-spacing: .35em;
      }

      .st50 {
        letter-spacing: .33em;
      }

      .st51 {
        letter-spacing: .33em;
      }

      .st52 {
        letter-spacing: .35em;
      }

      .st53 {
        letter-spacing: .35em;
      }

      .st54 {
        letter-spacing: .35em;
      }

      .st55 {
        letter-spacing: .38em;
      }

      .st56 {
        letter-spacing: .38em;
      }

      .st57 {
        letter-spacing: .25em;
      }

      .st58 {
        letter-spacing: .26em;
      }

      .st59 {
        letter-spacing: .26em;
      }

      .st60 {
        letter-spacing: .26em;
      }

      .st61 {
        letter-spacing: .27em;
      }

      .st62 {
        letter-spacing: .27em;
      }

      .st63 {
        letter-spacing: .27em;
      }

      .st64 {
        letter-spacing: .27em;
      }

      .st65 {
        letter-spacing: .29em;
      }

      .st66 {
        letter-spacing: .29em;
      }

      .st67 {
        letter-spacing: .29em;
      }

      .st68 {
        letter-spacing: .29em;
      }

      .st69 {
        letter-spacing: .29em;
      }

      .st70 {
        letter-spacing: .31em;
      }

      .st71 {
        letter-spacing: .31em;
      }

      .st72 {
        letter-spacing: .29em;
      }

      .st73 {
        letter-spacing: .29em;
      }

      .st74 {
        letter-spacing: .29em;
      }

      .st75 {
        letter-spacing: .22em;
      }

      .st76 {
        letter-spacing: .22em;
      }

      .st77 {
        letter-spacing: .25em;
      }

      .st78 {
        letter-spacing: .25em;
      }

      .st79 {
        letter-spacing: .57em;
      }

      .st80 {
        letter-spacing: .57em;
      }

      .st81 {
        letter-spacing: .57em;
      }

      .st82 {
        letter-spacing: .46em;
      }

      .st83 {
        letter-spacing: .46em;
      }

      .st3 {
        stroke: #222;
      }

      .st3, .st9, .st5 {
        stroke-width: 1.56px;
      }

      .st84 {
        letter-spacing: .17em;
      }

      .st10 {
        fill: #44485a;
      }

      .st4 {
        font-size: 28.13px;
      }

      .st11 {
        fill: #14381b;
      }

      .st12 {
        fill: #121244;
      }

      .st13 {
        stroke-width: 3.91px;
      }

      .st85 {
        letter-spacing: .02em;
      }
    </style>
  </defs>
  <rect class="st14" x="-.31" y="-.61" width="1989.13" height="3284.75"/>
  <text class="st4" transform="translate(583.96 57.83)"><tspan x="0" y="0">Test</tspan><tspan class="st41" x="57.84" y="0"> </tspan><tspan x="75.25" y="0">Flow</tspan><tspan class="st41" x="139.31" y="0"> </tspan><tspan x="156.72" y="0">-</tspan><tspan class="st41" x="166.08" y="0"> </tspan><tspan x="183.5" y="0">Data</tspan><tspan class="st41" x="244.46" y="0"> </tspan><tspan x="261.88" y="0">Management</tspan><tspan class="st41" x="433.81" y="0"> </tspan><tspan x="451.22" y="0">System</tspan><tspan class="st41" x="551.29" y="0"> </tspan><tspan x="568.7" y="0">(Shipping</tspan><tspan class="st41" x="698.37" y="0"> </tspan><tspan x="715.78" y="0">Orders)</tspan></text>
  <circle class="st3" cx="1552.7" cy="96.58" r="15.63"/>
  <rect class="st10" x="1487.49" y="143.46" width="130.42" height="53.34" rx="19.53" ry="19.53"/>
  <text class="st2" transform="translate(1503.11 177.22)"><tspan x="0" y="0">Launch</tspan><tspan class="st84" x="61.52" y="0"> </tspan><tspan x="70" y="0">CLI</tspan></text>
  <path class="st10" d="M1438.7,228.06h227.99c10.78,0,19.53,8.75,19.53,19.53v14.27c0,10.78-8.75,19.53-19.53,19.53h-228c-10.78,0-19.53-8.75-19.53-19.53v-14.27c0-10.78,8.75-19.53,19.53-19.53Z"/>
  <text class="st2" transform="translate(1434.8 261.81)"><tspan x="0" y="0">Choose</tspan><tspan class="st55" x="64.63" y="0"> </tspan><tspan x="76.88" y="0">action</tspan><tspan class="st55" x="126.92" y="0"> </tspan><tspan x="139.17" y="0">from</tspan><tspan class="st56" x="176.67" y="0"> </tspan><tspan x="188.92" y="0">menu</tspan></text>
  <rect class="st8" x="16.88" y="297.02" width="1946.78" height="955.45"/>
  <path class="st7" d="M206.38,297.02v14.83l-15.63,15.63H16.88"/>
  <text class="st0" transform="translate(21.57 319.73)"><tspan x="0" y="0">Add</tspan><tspan class="st51" x="42.53" y="0"> </tspan><tspan x="55.93" y="0">Order</tspan><tspan class="st50" x="115.5" y="0"> </tspan><tspan x="128.9" y="0">Test</tspan></text>
  <polygon class="st10" points="1462.06 354.04 1643.34 354.04 1662.09 372.79 1643.34 391.54 1462.06 391.54 1443.31 372.79 1462.06 354.04"/>
  <text class="st1" transform="translate(1462.06 379.29)"><tspan x="0" y="0">&quot;Add</tspan><tspan class="st57" x="36.69" y="0"> </tspan><tspan x="45.74" y="0">Order</tspan><tspan class="st57" x="89.68" y="0"> </tspan><tspan x="98.74" y="0">Selected?&quot;</tspan></text>
  <text class="st1" transform="translate(1415.99 369.17)"><tspan class="st85" x="0" y="0">ye</tspan><tspan x="18.73" y="0">s</tspan></text>
  <path class="st12" d="M1087.16,407.17h297.89c10.78,0,19.53,8.75,19.53,19.53v14.27c0,10.78-8.75,19.53-19.53,19.53h-297.89c-10.78,0-19.53-8.75-19.53-19.53v-14.27c0-10.78,8.75-19.53,19.53-19.53Z"/>
  <text class="st2" transform="translate(1083.25 440.93)"><tspan x="0" y="0">«info»</tspan><tspan class="st17" x="51.09" y="0"> </tspan><tspan x="63.16" y="0">Prompt</tspan><tspan class="st17" x="123.6" y="0"> </tspan><tspan x="135.68" y="0">for</tspan><tspan class="st21" x="157.56" y="0"> </tspan><tspan x="169.64" y="0">customer</tspan><tspan class="st17" x="246.75" y="0"> </tspan><tspan x="258.82" y="0">name</tspan></text>
  <polygon class="st10" points="1137.68 491.76 1334.53 491.76 1353.29 510.52 1334.53 529.27 1137.68 529.27 1118.93 510.52 1137.68 491.76"/>
  <text class="st1" transform="translate(1137.68 517.01)"><tspan x="0" y="0">&quot;Customer</tspan><tspan class="st16" x="80.61" y="0"> </tspan><tspan x="91.73" y="0">name</tspan><tspan class="st16" x="134.73" y="0"> </tspan><tspan x="145.86" y="0">valid?&quot;</tspan></text>
  <text class="st1" transform="translate(1091.61 506.89)"><tspan class="st85" x="0" y="0">ye</tspan><tspan x="18.73" y="0">s</tspan></text>
  <path class="st12" d="M755.36,544.89h281.27c10.78,0,19.53,8.75,19.53,19.53v14.27c0,10.78-8.75,19.53-19.53,19.53h-281.27c-10.78,0-19.53-8.75-19.53-19.53v-14.27c0-10.78,8.75-19.53,19.53-19.53Z"/>
  <text class="st2" transform="translate(751.45 578.65)"><tspan x="0" y="0">«info»</tspan><tspan class="st54" x="51.09" y="0"> </tspan><tspan x="62.91" y="0">Prompt</tspan><tspan class="st53" x="123.35" y="0"> </tspan><tspan x="135.17" y="0">for</tspan><tspan class="st54" x="157.06" y="0"> </tspan><tspan x="168.88" y="0">shipper</tspan><tspan class="st53" x="230.38" y="0"> </tspan><tspan x="242.2" y="0">name</tspan></text>
  <polygon class="st10" points="806.48 629.49 985.51 629.49 1004.26 648.24 985.51 666.99 806.48 666.99 787.73 648.24 806.48 629.49"/>
  <text class="st1" transform="translate(806.48 654.74)"><tspan x="0" y="0">&quot;Shipper</tspan><tspan class="st65" x="65.35" y="0"> </tspan><tspan x="75.19" y="0">name</tspan><tspan class="st65" x="118.19" y="0"> </tspan><tspan x="128.03" y="0">valid?&quot;</tspan></text>
  <text class="st1" transform="translate(760.41 644.61)"><tspan class="st85" x="0" y="0">ye</tspan><tspan x="18.73" y="0">s</tspan></text>
  <path class="st12" d="M492.68,682.62h217.71c10.78,0,19.53,8.75,19.53,19.53v14.27c0,10.78-8.75,19.53-19.53,19.53h-217.71c-10.78,0-19.53-8.75-19.53-19.53v-14.27c0-10.78,8.75-19.53,19.53-19.53Z"/>
  <text class="st2" transform="translate(488.78 716.37)"><tspan x="0" y="0">«info»</tspan><tspan class="st27" x="51.09" y="0"> </tspan><tspan x="63.73" y="0">Prompt</tspan><tspan class="st27" x="124.17" y="0"> </tspan><tspan x="136.82" y="0">for</tspan><tspan class="st26" x="158.7" y="0"> </tspan><tspan x="171.34" y="0">weight</tspan></text>
  <polygon class="st10" points="540.67 767.21 662.41 767.21 681.16 785.96 662.41 804.71 540.67 804.71 521.92 785.96 540.67 767.21"/>
  <text class="st1" transform="translate(540.67 792.46)"><tspan x="0" y="0">&quot;Weight</tspan><tspan class="st18" x="59.6" y="0"> </tspan><tspan x="70.73" y="0">valid?&quot;</tspan></text>
  <text class="st1" transform="translate(494.6 782.34)"><tspan class="st85" x="0" y="0">ye</tspan><tspan x="18.73" y="0">s</tspan></text>
  <path class="st12" d="M241.85,820.34h232.89c10.78,0,19.53,8.75,19.53,19.53v14.27c0,10.78-8.75,19.53-19.53,19.53h-232.89c-10.78,0-19.53-8.75-19.53-19.53v-14.27c0-10.78,8.75-19.53,19.53-19.53Z"/>
  <text class="st2" transform="translate(237.94 854.1)"><tspan x="0" y="0">«info»</tspan><tspan class="st19" x="51.09" y="0"> </tspan><tspan x="63.58" y="0">Prompt</tspan><tspan class="st20" x="124.02" y="0"> </tspan><tspan x="136.51" y="0">for</tspan><tspan class="st20" x="158.4" y="0"> </tspan><tspan x="170.89" y="0">distance</tspan></text>
  <polygon class="st10" points="290.17 904.93 426.42 904.93 445.17 923.69 426.42 942.44 290.17 942.44 271.42 923.69 290.17 904.93"/>
  <text class="st1" transform="translate(290.17 930.18)"><tspan x="0" y="0">&quot;Distance</tspan><tspan class="st32" x="72.98" y="0"> </tspan><tspan x="85.24" y="0">valid?&quot;</tspan></text>
  <text class="st1" transform="translate(244.11 920.06)"><tspan class="st85" x="0" y="0">ye</tspan><tspan x="18.73" y="0">s</tspan></text>
  <path class="st11" d="M86,958.06h214.58c10.78,0,19.53,8.75,19.53,19.53v14.27c0,10.78-8.75,19.53-19.53,19.53H86c-10.78,0-19.53-8.75-19.53-19.53v-14.27c0-10.78,8.75-19.53,19.53-19.53Z"/>
  <text class="st2" transform="translate(82.09 991.82)"><tspan x="0" y="0">«success»</tspan><tspan class="st73" x="88.6" y="0"> </tspan><tspan x="99.22" y="0">Calculate</tspan><tspan class="st72" x="177.4" y="0"> </tspan><tspan x="188.03" y="0">cost</tspan></text>
  <path class="st11" d="M98.53,1042.66h189.52c10.78,0,19.53,8.75,19.53,19.53v14.27c0,10.78-8.75,19.53-19.53,19.53H98.53c-10.78,0-19.53-8.75-19.53-19.53v-14.27c0-10.78,8.75-19.53,19.53-19.53Z"/>
  <text class="st2" transform="translate(94.62 1076.41)"><tspan x="0" y="0">«success»</tspan><tspan class="st60" x="88.6" y="0"> </tspan><tspan x="98.68" y="0">Store</tspan><tspan class="st59" x="143.5" y="0"> </tspan><tspan x="153.58" y="0">order</tspan></text>
  <path class="st11" d="M55.17,1127.25h276.26c10.78,0,19.53,8.75,19.53,19.53v14.27c0,10.78-8.75,19.53-19.53,19.53H55.16c-10.78,0-19.53-8.75-19.53-19.53v-14.27c0-10.78,8.75-19.53,19.53-19.53Z"/>
  <text class="st2" transform="translate(51.26 1161.01)"><tspan x="0" y="0">«success»</tspan><tspan class="st80" x="88.6" y="0"> </tspan><tspan x="104.53" y="0">Display</tspan><tspan class="st79" x="166.02" y="0"> </tspan><tspan x="181.95" y="0">confirmation</tspan></text>
  <path class="st6" d="M401.74,958.06h243.13c10.78,0,19.53,8.75,19.53,19.53v14.27c0,10.78-8.75,19.53-19.53,19.53h-243.13c-10.78,0-19.53-8.75-19.53-19.53v-14.27c0-10.78,8.75-19.53,19.53-19.53Z"/>
  <text class="st2" transform="translate(397.83 991.82)"><tspan x="0" y="0">«error»</tspan><tspan class="st35" x="60.45" y="0"> </tspan><tspan x="71.84" y="0">Show</tspan><tspan class="st36" x="118.75" y="0"> </tspan><tspan x="130.14" y="0">distance</tspan><tspan class="st35" x="199.98" y="0"> </tspan><tspan x="211.37" y="0">error</tspan></text>
  <circle class="st7" cx="523.3" cy="1058.28" r="15.63"/>
  <line class="st13" x1="513.63" y1="1048.62" x2="532.97" y2="1067.95"/>
  <line class="st13" x1="532.97" y1="1048.62" x2="513.63" y2="1067.95"/>
  <path class="st6" d="M730.81,820.34h227.95c10.78,0,19.53,8.75,19.53,19.53v14.27c0,10.78-8.75,19.53-19.53,19.53h-227.95c-10.78,0-19.53-8.75-19.53-19.53v-14.27c0-10.78,8.75-19.53,19.53-19.53Z"/>
  <text class="st2" transform="translate(726.9 854.1)"><tspan x="0" y="0">«error»</tspan><tspan class="st42" x="60.45" y="0"> </tspan><tspan x="71.99" y="0">Show</tspan><tspan class="st42" x="118.9" y="0"> </tspan><tspan x="130.44" y="0">weight</tspan><tspan class="st42" x="184.65" y="0"> </tspan><tspan x="196.19" y="0">error</tspan></text>
  <circle class="st7" cx="844.78" cy="920.56" r="15.63"/>
  <line class="st13" x1="835.12" y1="910.89" x2="854.45" y2="930.23"/>
  <line class="st13" x1="854.45" y1="910.89" x2="835.12" y2="930.23"/>
  <path class="st6" d="M1044.7,682.62h291.51c10.78,0,19.53,8.75,19.53,19.53v14.27c0,10.78-8.75,19.53-19.53,19.53h-291.51c-10.78,0-19.53-8.75-19.53-19.53v-14.27c0-10.78,8.75-19.53,19.53-19.53Z"/>
  <text class="st2" transform="translate(1040.79 716.37)"><tspan x="0" y="0">«error»</tspan><tspan class="st71" x="60.45" y="0"> </tspan><tspan x="71.45" y="0">Show</tspan><tspan class="st70" x="118.35" y="0"> </tspan><tspan x="129.35" y="0">shipper</tspan><tspan class="st71" x="190.85" y="0"> </tspan><tspan x="201.85" y="0">name</tspan><tspan class="st70" x="248.75" y="0"> </tspan><tspan x="259.75" y="0">error</tspan></text>
  <circle class="st7" cx="1190.46" cy="782.84" r="15.63"/>
  <line class="st13" x1="1180.79" y1="773.17" x2="1200.12" y2="792.51"/>
  <line class="st13" x1="1200.12" y1="773.17" x2="1180.79" y2="792.51"/>
  <path class="st6" d="M1422.15,544.89h308.13c10.78,0,19.53,8.75,19.53,19.53v14.27c0,10.78-8.75,19.53-19.53,19.53h-308.13c-10.78,0-19.53-8.75-19.53-19.53v-14.27c0-10.78,8.75-19.53,19.53-19.53Z"/>
  <text class="st2" transform="translate(1418.24 578.65)"><tspan x="0" y="0">«error»</tspan><tspan class="st40" x="60.45" y="0"> </tspan><tspan x="71.7" y="0">Show</tspan><tspan class="st40" x="118.6" y="0"> </tspan><tspan x="129.85" y="0">customer</tspan><tspan class="st39" x="206.97" y="0"> </tspan><tspan x="218.22" y="0">name</tspan><tspan class="st40" x="265.12" y="0"> </tspan><tspan x="276.37" y="0">error</tspan></text>
  <circle class="st7" cx="1576.21" cy="645.11" r="15.63"/>
  <line class="st13" x1="1566.55" y1="635.45" x2="1585.88" y2="654.78"/>
  <line class="st13" x1="1585.88" y1="635.45" x2="1566.55" y2="654.78"/>
  <path class="st10" d="M1816.22,407.17h106.16c10.78,0,19.53,8.75,19.53,19.53v14.27c0,10.78-8.75,19.53-19.53,19.53h-106.15c-10.78,0-19.53-8.75-19.53-19.53v-14.27c0-10.78,8.75-19.53,19.53-19.53Z"/>
  <text class="st2" transform="translate(1812.31 440.93)"><tspan x="0" y="0">-&gt;</tspan><tspan class="st15" x="17.2" y="0"> </tspan><tspan x="38.92" y="0">Continue</tspan></text>
  <polygon class="st10" points="1552.7 1196.21 1571.45 1214.97 1552.7 1233.72 1533.95 1214.97 1552.7 1196.21"/>
  <rect class="st8" x="618.98" y="1268.1" width="1313.33" height="964.83"/>
  <path class="st7" d="M843.03,1268.1v14.83l-15.63,15.63h-208.42"/>
  <text class="st0" transform="translate(623.67 1290.81)"><tspan x="0" y="0">Update</tspan><tspan class="st25" x="74.15" y="0"> </tspan><tspan x="89.01" y="0">Order</tspan><tspan class="st24" x="148.59" y="0"> </tspan><tspan x="163.45" y="0">Test</tspan></text>
  <polygon class="st10" points="1449.29 1325.12 1656.11 1325.12 1674.87 1343.87 1656.11 1362.62 1449.29 1362.62 1430.54 1343.87 1449.29 1325.12"/>
  <text class="st1" transform="translate(1449.29 1350.37)"><tspan x="0" y="0">&quot;Update</tspan><tspan class="st61" x="61.53" y="0"> </tspan><tspan x="70.94" y="0">Order</tspan><tspan class="st64" x="114.88" y="0"> </tspan><tspan x="124.29" y="0">Selected?&quot;</tspan></text>
  <text class="st1" transform="translate(1403.22 1340.24)"><tspan class="st85" x="0" y="0">ye</tspan><tspan x="18.73" y="0">s</tspan></text>
  <path class="st12" d="M1159.66,1378.25h234.6c10.78,0,19.53,8.75,19.53,19.53v14.27c0,10.78-8.75,19.53-19.53,19.53h-234.6c-10.78,0-19.53-8.75-19.53-19.53v-14.27c0-10.78,8.75-19.53,19.53-19.53Z"/>
  <text class="st2" transform="translate(1155.75 1412.01)"><tspan x="0" y="0">«info»</tspan><tspan class="st69" x="51.09" y="0"> </tspan><tspan x="61.67" y="0">Prompt</tspan><tspan class="st68" x="122.11" y="0"> </tspan><tspan x="132.7" y="0">for</tspan><tspan class="st69" x="154.58" y="0"> </tspan><tspan x="165.16" y="0">Order</tspan><tspan class="st68" x="213.1" y="0"> </tspan><tspan x="223.68" y="0">ID</tspan></text>
  <polygon class="st10" points="1215.76 1462.84 1338.14 1462.84 1356.89 1481.59 1338.14 1500.34 1215.76 1500.34 1197.01 1481.59 1215.76 1462.84"/>
  <text class="st1" transform="translate(1215.76 1488.09)"><tspan x="0" y="0">&quot;Order</tspan><tspan class="st82" x="50.04" y="0"> </tspan><tspan x="62.79" y="0">exists?&quot;</tspan></text>
  <text class="st1" transform="translate(1169.69 1477.97)"><tspan class="st85" x="0" y="0">ye</tspan><tspan x="18.73" y="0">s</tspan></text>
  <path class="st12" d="M873.4,1515.97h260.18c10.78,0,19.53,8.75,19.53,19.53v14.27c0,10.78-8.75,19.53-19.53,19.53h-260.18c-10.78,0-19.53-8.75-19.53-19.53v-14.27c0-10.78,8.75-19.53,19.53-19.53Z"/>
  <text class="st2" transform="translate(869.49 1549.73)"><tspan x="0" y="0">«info»</tspan><tspan class="st43" x="51.09" y="0"> </tspan><tspan x="62.59" y="0">Prompt</tspan><tspan class="st43" x="123.03" y="0"> </tspan><tspan x="134.53" y="0">for</tspan><tspan class="st43" x="156.41" y="0"> </tspan><tspan x="167.91" y="0">new</tspan><tspan class="st44" x="202.31" y="0"> </tspan><tspan x="213.81" y="0">weight</tspan></text>
  <polygon class="st10" points="918.13 1600.56 1088.85 1600.56 1107.6 1619.32 1088.85 1638.07 918.13 1638.07 899.38 1619.32 918.13 1600.56"/>
  <text class="st1" transform="translate(918.13 1625.81)"><tspan x="0" y="0">&quot;Weight</tspan><tspan class="st23" x="59.6" y="0"> </tspan><tspan x="71.02" y="0">input</tspan><tspan class="st23" x="108.3" y="0"> </tspan><tspan x="119.72" y="0">valid?&quot;</tspan></text>
  <text class="st1" transform="translate(872.06 1615.69)"><tspan class="st85" x="0" y="0">ye</tspan><tspan x="18.73" y="0">s</tspan></text>
  <path class="st11" d="M733.94,1653.69h218.73c10.78,0,19.53,8.75,19.53,19.53v14.27c0,10.78-8.75,19.53-19.53,19.53h-218.73c-10.78,0-19.53-8.75-19.53-19.53v-14.27c0-10.78,8.75-19.53,19.53-19.53Z"/>
  <text class="st2" transform="translate(730.03 1687.45)"><tspan x="0" y="0">«success»</tspan><tspan class="st47" x="88.59" y="0"> </tspan><tspan x="100.24" y="0">Update</tspan><tspan class="st47" x="160.71" y="0"> </tspan><tspan x="172.35" y="0">weight</tspan></text>
  <path class="st6" d="M1022.98,1653.69h281.39c10.78,0,19.53,8.75,19.53,19.53v14.27c0,10.78-8.75,19.53-19.53,19.53h-281.39c-10.78,0-19.53-8.75-19.53-19.53v-14.27c0-10.78,8.75-19.53,19.53-19.53Z"/>
  <text class="st2" transform="translate(1019.07 1687.45)"><tspan x="0" y="0">«error»</tspan><tspan class="st48" x="60.45" y="0"> </tspan><tspan x="72.3" y="0">Show</tspan><tspan class="st49" x="119.21" y="0"> </tspan><tspan x="131.06" y="0">weight</tspan><tspan class="st48" x="185.27" y="0"> </tspan><tspan x="197.12" y="0">input</tspan><tspan class="st48" x="237.78" y="0"> </tspan><tspan x="249.64" y="0">error</tspan></text>
  <circle class="st7" cx="1163.68" cy="1753.91" r="15.63"/>
  <line class="st13" x1="1154.01" y1="1744.24" x2="1173.35" y2="1763.58"/>
  <line class="st13" x1="1173.35" y1="1744.24" x2="1154.01" y2="1763.58"/>
  <path class="st12" d="M865.81,1800.79h275.36c10.78,0,19.53,8.75,19.53,19.53v14.27c0,10.78-8.75,19.53-19.53,19.53h-275.36c-10.78,0-19.53-8.75-19.53-19.53v-14.27c0-10.78,8.75-19.53,19.53-19.53Z"/>
  <text class="st2" transform="translate(861.9 1834.55)"><tspan x="0" y="0">«info»</tspan><tspan class="st34" x="51.09" y="0"> </tspan><tspan x="62.48" y="0">Prompt</tspan><tspan class="st34" x="122.92" y="0"> </tspan><tspan x="134.3" y="0">for</tspan><tspan class="st37" x="156.18" y="0"> </tspan><tspan x="167.57" y="0">new</tspan><tspan class="st34" x="201.97" y="0"> </tspan><tspan x="213.35" y="0">distance</tspan></text>
  <polygon class="st10" points="910.87 1885.39 1096.11 1885.39 1114.86 1904.14 1096.11 1922.89 910.87 1922.89 892.12 1904.14 910.87 1885.39"/>
  <text class="st1" transform="translate(910.87 1910.63)"><tspan x="0" y="0">&quot;Distance</tspan><tspan class="st28" x="72.98" y="0"> </tspan><tspan x="84.97" y="0">input</tspan><tspan class="st29" x="122.25" y="0"> </tspan><tspan x="134.24" y="0">valid?&quot;</tspan></text>
  <text class="st1" transform="translate(864.8 1900.51)"><tspan class="st85" x="0" y="0">ye</tspan><tspan x="18.73" y="0">s</tspan></text>
  <path class="st11" d="M712.84,1938.52h233.91c10.78,0,19.53,8.75,19.53,19.53v14.27c0,10.78-8.75,19.53-19.53,19.53h-233.91c-10.78,0-19.53-8.75-19.53-19.53v-14.27c0-10.78,8.75-19.53,19.53-19.53Z"/>
  <text class="st2" transform="translate(708.94 1972.27)"><tspan x="0" y="0">«success»</tspan><tspan class="st45" x="88.59" y="0"> </tspan><tspan x="100.01" y="0">Update</tspan><tspan class="st46" x="160.48" y="0"> </tspan><tspan x="171.9" y="0">distance</tspan></text>
  <path class="st11" d="M722.51,2023.11h214.58c10.78,0,19.53,8.75,19.53,19.53v14.27c0,10.78-8.75,19.53-19.53,19.53h-214.58c-10.78,0-19.53-8.75-19.53-19.53v-14.27c0-10.78,8.75-19.53,19.53-19.53Z"/>
  <text class="st2" transform="translate(718.6 2056.87)"><tspan x="0" y="0">«success»</tspan><tspan class="st74" x="88.59" y="0"> </tspan><tspan x="99.22" y="0">Calculate</tspan><tspan class="st72" x="177.4" y="0"> </tspan><tspan x="188.02" y="0">cost</tspan></text>
  <path class="st11" d="M701.02,2107.7h257.56c10.78,0,19.53,8.75,19.53,19.53v14.27c0,10.78-8.75,19.53-19.53,19.53h-257.56c-10.78,0-19.53-8.75-19.53-19.53v-14.27c0-10.78,8.75-19.53,19.53-19.53Z"/>
  <text class="st2" transform="translate(697.11 2141.46)"><tspan x="0" y="0">«success»</tspan><tspan class="st83" x="88.59" y="0"> </tspan><tspan x="102.47" y="0">Show</tspan><tspan class="st83" x="149.38" y="0"> </tspan><tspan x="163.25" y="0">confirmation</tspan></text>
  <path class="st6" d="M1028.9,1938.52h296.57c10.78,0,19.53,8.75,19.53,19.53v14.27c0,10.78-8.75,19.53-19.53,19.53h-296.57c-10.78,0-19.53-8.75-19.53-19.53v-14.27c0-10.78,8.75-19.53,19.53-19.53Z"/>
  <text class="st2" transform="translate(1024.99 1972.27)"><tspan x="0" y="0">«error»</tspan><tspan class="st52" x="60.45" y="0"> </tspan><tspan x="72.19" y="0">Show</tspan><tspan class="st52" x="119.09" y="0"> </tspan><tspan x="130.83" y="0">distance</tspan><tspan class="st52" x="200.68" y="0"> </tspan><tspan x="212.42" y="0">input</tspan><tspan class="st52" x="253.08" y="0"> </tspan><tspan x="264.82" y="0">error</tspan></text>
  <circle class="st7" cx="1177.18" cy="2038.74" r="15.63"/>
  <line class="st13" x1="1167.51" y1="2029.07" x2="1186.85" y2="2048.4"/>
  <line class="st13" x1="1186.85" y1="2029.07" x2="1167.51" y2="2048.4"/>
  <path class="st6" d="M1411.41,1515.97h278.02c10.78,0,19.53,8.75,19.53,19.53v14.27c0,10.78-8.75,19.53-19.53,19.53h-278.02c-10.78,0-19.53-8.75-19.53-19.53v-14.27c0-10.78,8.75-19.53,19.53-19.53Z"/>
  <text class="st2" transform="translate(1407.5 1549.73)"><tspan x="0" y="0">«error»</tspan><tspan class="st62" x="60.45" y="0"> </tspan><tspan x="70.71" y="0">Show</tspan><tspan class="st63" x="117.62" y="0"> </tspan><tspan x="127.89" y="0">&apos;Order</tspan><tspan class="st62" x="179.4" y="0"> </tspan><tspan x="189.66" y="0">Not</tspan><tspan class="st62" x="218.84" y="0"> </tspan><tspan x="229.11" y="0">Found&apos;</tspan></text>
  <circle class="st7" cx="1550.42" cy="1616.19" r="15.63"/>
  <line class="st13" x1="1540.75" y1="1606.52" x2="1560.09" y2="1625.86"/>
  <line class="st13" x1="1560.09" y1="1606.52" x2="1540.75" y2="1625.86"/>
  <path class="st10" d="M1775.37,1378.25h106.15c10.78,0,19.53,8.75,19.53,19.53v14.27c0,10.78-8.75,19.53-19.53,19.53h-106.15c-10.78,0-19.53-8.75-19.53-19.53v-14.27c0-10.78,8.75-19.53,19.53-19.53Z"/>
  <text class="st2" transform="translate(1771.46 1412.01)"><tspan x="0" y="0">-&gt;</tspan><tspan class="st15" x="17.2" y="0"> </tspan><tspan x="38.92" y="0">Continue</tspan></text>
  <polygon class="st10" points="1552.7 2176.67 1571.45 2195.42 1552.7 2214.17 1533.95 2195.42 1552.7 2176.67"/>
  <rect class="st8" x="964.92" y="2248.55" width="915.19" height="542.28"/>
  <path class="st7" d="M1181.1,2248.55v14.83l-15.63,15.63h-200.56"/>
  <text class="st0" transform="translate(969.6 2271.26)"><tspan x="0" y="0">Delete</tspan><tspan class="st30" x="65.66" y="0"> </tspan><tspan x="80.84" y="0">Order</tspan><tspan class="st31" x="140.41" y="0"> </tspan><tspan x="155.59" y="0">Test</tspan></text>
  <polygon class="st10" points="1452.31 2305.57 1653.09 2305.57 1671.84 2324.32 1653.09 2343.07 1452.31 2343.07 1433.56 2324.32 1452.31 2305.57"/>
  <text class="st1" transform="translate(1452.31 2330.82)"><tspan x="0" y="0">&quot;Delete</tspan><tspan class="st58" x="55.79" y="0"> </tspan><tspan x="65.05" y="0">Order</tspan><tspan class="st58" x="108.99" y="0"> </tspan><tspan x="118.25" y="0">Selected?&quot;</tspan></text>
  <text class="st1" transform="translate(1406.24 2320.7)"><tspan class="st85" x="0" y="0">ye</tspan><tspan x="18.73" y="0">s</tspan></text>
  <path class="st12" d="M1211.86,2358.7h234.6c10.78,0,19.53,8.75,19.53,19.53v14.27c0,10.78-8.75,19.53-19.53,19.53h-234.6c-10.78,0-19.53-8.75-19.53-19.53v-14.27c0-10.78,8.75-19.53,19.53-19.53Z"/>
  <text class="st2" transform="translate(1207.95 2392.46)"><tspan x="0" y="0">«info»</tspan><tspan class="st69" x="51.09" y="0"> </tspan><tspan x="61.67" y="0">Prompt</tspan><tspan class="st68" x="122.11" y="0"> </tspan><tspan x="132.7" y="0">for</tspan><tspan class="st69" x="154.58" y="0"> </tspan><tspan x="165.16" y="0">Order</tspan><tspan class="st68" x="213.1" y="0"> </tspan><tspan x="223.68" y="0">ID</tspan></text>
  <polygon class="st10" points="1267.97 2443.29 1390.35 2443.29 1409.1 2462.04 1390.35 2480.8 1267.97 2480.8 1249.22 2462.04 1267.97 2443.29"/>
  <text class="st1" transform="translate(1267.97 2468.54)"><tspan x="0" y="0">&quot;Order</tspan><tspan class="st82" x="50.04" y="0"> </tspan><tspan x="62.79" y="0">exists?&quot;</tspan></text>
  <text class="st1" transform="translate(1221.9 2458.42)"><tspan class="st85" x="0" y="0">ye</tspan><tspan x="18.73" y="0">s</tspan></text>
  <path class="st12" d="M1056.86,2496.42h206.49c10.78,0,19.53,8.75,19.53,19.53v14.27c0,10.78-8.75,19.53-19.53,19.53h-206.49c-10.78,0-19.53-8.75-19.53-19.53v-14.27c0-10.78,8.75-19.53,19.53-19.53Z"/>
  <text class="st2" transform="translate(1052.95 2530.18)"><tspan x="0" y="0">«info»</tspan><tspan class="st81" x="51.09" y="0"> </tspan><tspan x="67.04" y="0">Confirm</tspan><tspan class="st81" x="132.68" y="0"> </tspan><tspan x="148.63" y="0">deletion</tspan></text>
  <path class="st11" d="M1059.81,2581.02h200.59c10.78,0,19.53,8.75,19.53,19.53v14.27c0,10.78-8.75,19.53-19.53,19.53h-200.59c-10.78,0-19.53-8.75-19.53-19.53v-14.27c0-10.78,8.75-19.53,19.53-19.53Z"/>
  <text class="st2" transform="translate(1055.9 2614.77)"><tspan x="0" y="0">«success»</tspan><tspan class="st38" x="88.59" y="0"> </tspan><tspan x="99.52" y="0">Delete</tspan><tspan class="st33" x="153.72" y="0"> </tspan><tspan x="164.65" y="0">order</tspan></text>
  <path class="st11" d="M1031.33,2665.61h257.56c10.78,0,19.53,8.75,19.53,19.53v14.27c0,10.78-8.75,19.53-19.53,19.53h-257.56c-10.78,0-19.53-8.75-19.53-19.53v-14.27c0-10.78,8.75-19.53,19.53-19.53Z"/>
  <text class="st2" transform="translate(1027.42 2699.36)"><tspan x="0" y="0">«success»</tspan><tspan class="st83" x="88.59" y="0"> </tspan><tspan x="102.47" y="0">Show</tspan><tspan class="st83" x="149.38" y="0"> </tspan><tspan x="163.25" y="0">confirmation</tspan></text>
  <path class="st6" d="M1359.2,2496.42h278.02c10.78,0,19.53,8.75,19.53,19.53v14.27c0,10.78-8.75,19.53-19.53,19.53h-278.02c-10.78,0-19.53-8.75-19.53-19.53v-14.27c0-10.78,8.75-19.53,19.53-19.53Z"/>
  <text class="st2" transform="translate(1355.29 2530.18)"><tspan x="0" y="0">«error»</tspan><tspan class="st63" x="60.45" y="0"> </tspan><tspan x="70.71" y="0">Show</tspan><tspan class="st62" x="117.62" y="0"> </tspan><tspan x="127.89" y="0">&apos;Order</tspan><tspan class="st63" x="179.4" y="0"> </tspan><tspan x="189.66" y="0">Not</tspan><tspan class="st62" x="218.84" y="0"> </tspan><tspan x="229.11" y="0">Found&apos;</tspan></text>
  <circle class="st7" cx="1498.21" cy="2596.64" r="15.63"/>
  <line class="st13" x1="1488.55" y1="2586.97" x2="1507.88" y2="2606.31"/>
  <line class="st13" x1="1507.88" y1="2586.97" x2="1488.55" y2="2606.31"/>
  <path class="st10" d="M1723.17,2358.7h106.15c10.78,0,19.53,8.75,19.53,19.53v14.27c0,10.78-8.75,19.53-19.53,19.53h-106.15c-10.78,0-19.53-8.75-19.53-19.53v-14.27c0-10.78,8.75-19.53,19.53-19.53Z"/>
  <text class="st2" transform="translate(1719.26 2392.46)"><tspan x="0" y="0">-&gt;</tspan><tspan class="st15" x="17.2" y="0"> </tspan><tspan x="38.92" y="0">Continue</tspan></text>
  <polygon class="st10" points="1552.7 2734.57 1571.45 2753.33 1552.7 2772.08 1533.95 2753.33 1552.7 2734.57"/>
  <rect class="st8" x="1196.6" y="2806.46" width="748.31" height="389.26"/>
  <path class="st7" d="M1540.18,2806.46v14.83l-15.63,15.63h-327.95"/>
  <text class="st0" transform="translate(1201.29 2829.17)"><tspan x="0" y="0">View</tspan><tspan class="st22" x="49.85" y="0"> </tspan><tspan x="63.96" y="0">Orders</tspan><tspan class="st22" x="135.7" y="0"> </tspan><tspan x="149.81" y="0">(Custom</tspan><tspan class="st22" x="238.53" y="0"> </tspan><tspan x="252.64" y="0">Action)</tspan></text>
  <polygon class="st10" points="1491.51 2939.23 1613.89 2939.23 1632.64 2957.98 1613.89 2976.74 1491.51 2976.74 1472.76 2957.98 1491.51 2939.23"/>
  <text class="st1" transform="translate(1491.51 2964.48)"><tspan x="0" y="0">&quot;Orders</tspan><tspan class="st82" x="58.64" y="0"> </tspan><tspan x="71.38" y="0">exist?&quot;</tspan></text>
  <text class="st1" transform="translate(1445.44 2954.36)"><tspan class="st85" x="0" y="0">ye</tspan><tspan x="18.73" y="0">s</tspan></text>
  <path class="st11" d="M1263.01,2992.36h245.86c10.78,0,19.53,8.75,19.53,19.53v14.27c0,10.78-8.75,19.53-19.53,19.53h-245.86c-10.78,0-19.53-8.75-19.53-19.53v-14.27c0-10.78,8.75-19.53,19.53-19.53Z"/>
  <text class="st2" transform="translate(1259.1 3026.12)"><tspan x="0" y="0">«success»</tspan><tspan class="st66" x="88.59" y="0"> </tspan><tspan x="99.16" y="0">Display</tspan><tspan class="st67" x="160.64" y="0"> </tspan><tspan x="171.21" y="0">all</tspan><tspan class="st66" x="189.97" y="0"> </tspan><tspan x="200.54" y="0">orders</tspan></text>
  <path class="st6" d="M1579.18,2992.36h280.57c10.78,0,19.53,8.75,19.53,19.53v14.27c0,10.78-8.75,19.53-19.53,19.53h-280.57c-10.78,0-19.53-8.75-19.53-19.53v-14.27c0-10.78,8.75-19.53,19.53-19.53Z"/>
  <text class="st2" transform="translate(1575.27 3026.12)"><tspan x="0" y="0">«error»</tspan><tspan class="st78" x="60.45" y="0"> </tspan><tspan x="70.31" y="0">Show</tspan><tspan class="st77" x="117.22" y="0"> </tspan><tspan x="127.07" y="0">&apos;No</tspan><tspan class="st78" x="154.63" y="0"> </tspan><tspan x="164.49" y="0">Orders</tspan><tspan class="st77" x="221.79" y="0"> </tspan><tspan x="231.65" y="0">Found&apos;</tspan></text>
  <circle class="st7" cx="1719.47" cy="3092.58" r="15.63"/>
  <line class="st13" x1="1709.8" y1="3082.91" x2="1729.13" y2="3102.25"/>
  <line class="st13" x1="1729.13" y1="3082.91" x2="1709.8" y2="3102.25"/>
  <polygon class="st10" points="1454.91 2863.48 1650.49 2863.48 1669.24 2882.23 1650.49 2900.98 1454.91 2900.98 1436.16 2882.23 1454.91 2863.48"/>
  <text class="st1" transform="translate(1558.95 2917.6)"><tspan class="st85" x="0" y="0">ye</tspan><tspan x="18.73" y="0">s</tspan></text>
  <text class="st1" transform="translate(1454.91 2888.72)"><tspan x="0" y="0">&quot;View</tspan><tspan class="st75" x="43.36" y="0"> </tspan><tspan x="51.93" y="0">Orders</tspan><tspan class="st76" x="104.46" y="0"> </tspan><tspan x="113.03" y="0">Selected?&quot;</tspan></text>
  <polygon class="st10" points="1552.7 3139.46 1571.45 3158.21 1552.7 3176.97 1533.95 3158.21 1552.7 3139.46"/>
  <circle class="st7" cx="1552.7" cy="3242.6" r="15.63"/>
  <line class="st13" x1="1543.03" y1="3232.93" x2="1562.37" y2="3252.27"/>
  <line class="st13" x1="1562.37" y1="3232.93" x2="1543.03" y2="3252.27"/>
  <line class="st9" x1="1552.7" y1="112.21" x2="1552.7" y2="143.46"/>
  <polygon class="st5" points="1546.45 127.84 1552.7 143.46 1558.95 127.84 1552.7 134.09 1546.45 127.84"/>
  <line class="st9" x1="1552.7" y1="196.8" x2="1552.7" y2="228.06"/>
  <polygon class="st5" points="1546.45 212.43 1552.7 228.06 1558.95 212.43 1552.7 218.68 1546.45 212.43"/>
  <line class="st9" x1="193.29" y1="1011.4" x2="193.29" y2="1042.66"/>
  <polygon class="st5" points="187.04 1027.03 193.29 1042.66 199.54 1027.03 193.29 1033.28 187.04 1027.03"/>
  <line class="st9" x1="193.29" y1="1096" x2="193.29" y2="1127.25"/>
  <polygon class="st5" points="187.04 1111.62 193.29 1127.25 199.54 1111.62 193.29 1117.87 187.04 1111.62"/>
  <line class="st9" x1="523.3" y1="1011.4" x2="523.3" y2="1042.66"/>
  <polygon class="st5" points="517.05 1027.03 523.3 1042.66 529.55 1027.03 523.3 1033.28 517.05 1027.03"/>
  <line class="st9" x1="271.42" y1="923.69" x2="193.29" y2="923.69"/>
  <line class="st9" x1="193.29" y1="923.69" x2="193.29" y2="958.06"/>
  <polygon class="st5" points="187.04 942.44 193.29 958.06 199.54 942.44 193.29 948.69 187.04 942.44"/>
  <line class="st9" x1="445.17" y1="923.69" x2="523.3" y2="923.69"/>
  <line class="st9" x1="523.3" y1="923.69" x2="523.3" y2="958.06"/>
  <polygon class="st5" points="517.05 942.44 523.3 958.06 529.55 942.44 523.3 948.69 517.05 942.44"/>
  <line class="st9" x1="193.29" y1="1180.59" x2="193.29" y2="1214.97"/>
  <line class="st9" x1="193.29" y1="1214.97" x2="1533.95" y2="1214.97"/>
  <polygon class="st5" points="1518.33 1208.72 1533.95 1214.97 1518.33 1221.22 1524.58 1214.97 1518.33 1208.72"/>
  <line class="st9" x1="358.3" y1="873.68" x2="358.3" y2="904.93"/>
  <polygon class="st5" points="352.05 889.31 358.3 904.93 364.55 889.31 358.3 895.56 352.05 889.31"/>
  <line class="st9" x1="844.78" y1="873.68" x2="844.78" y2="904.93"/>
  <polygon class="st5" points="838.53 889.31 844.78 904.93 851.03 889.31 844.78 895.56 838.53 889.31"/>
  <line class="st9" x1="521.92" y1="785.96" x2="358.3" y2="785.96"/>
  <line class="st9" x1="358.3" y1="785.96" x2="358.3" y2="820.34"/>
  <polygon class="st5" points="352.05 804.71 358.3 820.34 364.55 804.71 358.3 810.97 352.05 804.71"/>
  <line class="st9" x1="681.16" y1="785.96" x2="844.78" y2="785.96"/>
  <line class="st9" x1="844.78" y1="785.96" x2="844.78" y2="820.34"/>
  <polygon class="st5" points="838.53 804.71 844.78 820.34 851.03 804.71 844.78 810.97 838.53 804.71"/>
  <line class="st9" x1="601.54" y1="735.96" x2="601.54" y2="767.21"/>
  <polygon class="st5" points="595.29 751.58 601.54 767.21 607.79 751.58 601.54 757.83 595.29 751.58"/>
  <line class="st9" x1="1190.46" y1="735.96" x2="1190.46" y2="767.21"/>
  <polygon class="st5" points="1184.21 751.58 1190.46 767.21 1196.71 751.58 1190.46 757.83 1184.21 751.58"/>
  <line class="st9" x1="787.73" y1="648.24" x2="601.54" y2="648.24"/>
  <line class="st9" x1="601.54" y1="648.24" x2="601.54" y2="682.62"/>
  <polygon class="st5" points="595.29 666.99 601.54 682.62 607.79 666.99 601.54 673.24 595.29 666.99"/>
  <line class="st9" x1="1004.26" y1="648.24" x2="1190.46" y2="648.24"/>
  <line class="st9" x1="1190.46" y1="648.24" x2="1190.46" y2="682.62"/>
  <polygon class="st5" points="1184.21 666.99 1190.46 682.62 1196.71 666.99 1190.46 673.24 1184.21 666.99"/>
  <line class="st9" x1="896" y1="598.23" x2="896" y2="629.49"/>
  <polygon class="st5" points="889.75 613.86 896 629.49 902.25 613.86 896 620.11 889.75 613.86"/>
  <line class="st9" x1="1576.21" y1="598.23" x2="1576.21" y2="629.49"/>
  <polygon class="st5" points="1569.96 613.86 1576.21 629.49 1582.46 613.86 1576.21 620.11 1569.96 613.86"/>
  <line class="st9" x1="1118.93" y1="510.52" x2="896" y2="510.52"/>
  <line class="st9" x1="896" y1="510.52" x2="896" y2="544.89"/>
  <polygon class="st5" points="889.75 529.27 896 544.89 902.25 529.27 896 535.52 889.75 529.27"/>
  <line class="st9" x1="1353.29" y1="510.52" x2="1576.21" y2="510.52"/>
  <line class="st9" x1="1576.21" y1="510.52" x2="1576.21" y2="544.89"/>
  <polygon class="st5" points="1569.96 529.27 1576.21 544.89 1582.46 529.27 1576.21 535.52 1569.96 529.27"/>
  <line class="st9" x1="1236.11" y1="460.51" x2="1236.11" y2="491.76"/>
  <polygon class="st5" points="1229.86 476.14 1236.11 491.76 1242.36 476.14 1236.11 482.39 1229.86 476.14"/>
  <line class="st9" x1="1443.31" y1="372.79" x2="1236.11" y2="372.79"/>
  <line class="st9" x1="1236.11" y1="372.79" x2="1236.11" y2="407.17"/>
  <polygon class="st5" points="1229.86 391.54 1236.11 407.17 1242.36 391.54 1236.11 397.8 1229.86 391.54"/>
  <line class="st9" x1="1662.09" y1="372.79" x2="1869.3" y2="372.79"/>
  <line class="st9" x1="1869.3" y1="372.79" x2="1869.3" y2="407.17"/>
  <polygon class="st5" points="1863.05 391.54 1869.3 407.17 1875.55 391.54 1869.3 397.8 1863.05 391.54"/>
  <line class="st9" x1="1869.3" y1="460.51" x2="1869.3" y2="1214.97"/>
  <line class="st9" x1="1869.3" y1="1214.97" x2="1571.45" y2="1214.97"/>
  <polygon class="st5" points="1587.08 1208.72 1571.45 1214.97 1587.08 1221.22 1580.83 1214.97 1587.08 1208.72"/>
  <line class="st9" x1="1552.7" y1="281.39" x2="1552.7" y2="354.04"/>
  <polygon class="st5" points="1546.45 338.41 1552.7 354.04 1558.95 338.41 1552.7 344.66 1546.45 338.41"/>
  <line class="st9" x1="1163.68" y1="1707.03" x2="1163.68" y2="1738.29"/>
  <polygon class="st5" points="1157.43 1722.66 1163.68 1738.29 1169.93 1722.66 1163.68 1728.91 1157.43 1722.66"/>
  <line class="st9" x1="899.38" y1="1619.32" x2="843.3" y2="1619.32"/>
  <line class="st9" x1="843.3" y1="1619.32" x2="843.3" y2="1653.69"/>
  <polygon class="st5" points="837.05 1638.07 843.3 1653.69 849.55 1638.07 843.3 1644.32 837.05 1638.07"/>
  <line class="st9" x1="1107.6" y1="1619.32" x2="1163.68" y2="1619.32"/>
  <line class="st9" x1="1163.68" y1="1619.32" x2="1163.68" y2="1653.69"/>
  <polygon class="st5" points="1157.43 1638.07 1163.68 1653.69 1169.93 1638.07 1163.68 1644.32 1157.43 1638.07"/>
  <line class="st9" x1="843.3" y1="1707.03" x2="843.3" y2="1777.35"/>
  <line class="st9" x1="843.3" y1="1777.35" x2="1003.49" y2="1777.35"/>
  <line class="st9" x1="1003.49" y1="1777.35" x2="1003.49" y2="1800.79"/>
  <polygon class="st5" points="997.24 1785.17 1003.49 1800.79 1009.74 1785.17 1003.49 1791.42 997.24 1785.17"/>
  <line class="st9" x1="1003.49" y1="1569.31" x2="1003.49" y2="1600.56"/>
  <polygon class="st5" points="997.24 1584.94 1003.49 1600.56 1009.74 1584.94 1003.49 1591.19 997.24 1584.94"/>
  <line class="st9" x1="829.8" y1="1991.86" x2="829.8" y2="2023.11"/>
  <polygon class="st5" points="823.55 2007.48 829.8 2023.11 836.05 2007.48 829.8 2013.73 823.55 2007.48"/>
  <line class="st9" x1="829.8" y1="2076.45" x2="829.8" y2="2107.7"/>
  <polygon class="st5" points="823.55 2092.07 829.8 2107.7 836.05 2092.07 829.8 2098.33 823.55 2092.07"/>
  <line class="st9" x1="1177.18" y1="1991.86" x2="1177.18" y2="2023.11"/>
  <polygon class="st5" points="1170.93 2007.48 1177.18 2023.11 1183.43 2007.48 1177.18 2013.73 1170.93 2007.48"/>
  <line class="st9" x1="892.12" y1="1904.14" x2="829.8" y2="1904.14"/>
  <line class="st9" x1="829.8" y1="1904.14" x2="829.8" y2="1938.52"/>
  <polygon class="st5" points="823.55 1922.89 829.8 1938.52 836.05 1922.89 829.8 1929.14 823.55 1922.89"/>
  <line class="st9" x1="1114.86" y1="1904.14" x2="1177.18" y2="1904.14"/>
  <line class="st9" x1="1177.18" y1="1904.14" x2="1177.18" y2="1938.52"/>
  <polygon class="st5" points="1170.93 1922.89 1177.18 1938.52 1183.43 1922.89 1177.18 1929.14 1170.93 1922.89"/>
  <line class="st9" x1="829.8" y1="2161.04" x2="829.8" y2="2195.42"/>
  <line class="st9" x1="829.8" y1="2195.42" x2="1533.95" y2="2195.42"/>
  <polygon class="st5" points="1518.33 2189.17 1533.95 2195.42 1518.33 2201.67 1524.58 2195.42 1518.33 2189.17"/>
  <line class="st9" x1="1003.49" y1="1854.13" x2="1003.49" y2="1885.39"/>
  <polygon class="st5" points="997.24 1869.76 1003.49 1885.39 1009.74 1869.76 1003.49 1876.01 997.24 1869.76"/>
  <line class="st9" x1="1550.42" y1="1569.31" x2="1550.42" y2="1600.56"/>
  <polygon class="st5" points="1544.17 1584.94 1550.42 1600.56 1556.67 1584.94 1550.42 1591.19 1544.17 1584.94"/>
  <line class="st9" x1="1197.01" y1="1481.59" x2="1003.49" y2="1481.59"/>
  <line class="st9" x1="1003.49" y1="1481.59" x2="1003.49" y2="1515.97"/>
  <polygon class="st5" points="997.24 1500.34 1003.49 1515.97 1009.74 1500.34 1003.49 1506.6 997.24 1500.34"/>
  <line class="st9" x1="1356.89" y1="1481.59" x2="1550.42" y2="1481.59"/>
  <line class="st9" x1="1550.42" y1="1481.59" x2="1550.42" y2="1515.97"/>
  <polygon class="st5" points="1544.17 1500.34 1550.42 1515.97 1556.67 1500.34 1550.42 1506.6 1544.17 1500.34"/>
  <line class="st9" x1="1276.95" y1="1431.59" x2="1276.95" y2="1462.84"/>
  <polygon class="st5" points="1270.7 1447.21 1276.95 1462.84 1283.2 1447.21 1276.95 1453.46 1270.7 1447.21"/>
  <line class="st9" x1="1430.54" y1="1343.87" x2="1276.95" y2="1343.87"/>
  <line class="st9" x1="1276.95" y1="1343.87" x2="1276.95" y2="1378.25"/>
  <polygon class="st5" points="1270.7 1362.62 1276.95 1378.25 1283.2 1362.62 1276.95 1368.87 1270.7 1362.62"/>
  <line class="st9" x1="1674.87" y1="1343.87" x2="1828.45" y2="1343.87"/>
  <line class="st9" x1="1828.45" y1="1343.87" x2="1828.45" y2="1378.25"/>
  <polygon class="st5" points="1822.2 1362.62 1828.45 1378.25 1834.7 1362.62 1828.45 1368.87 1822.2 1362.62"/>
  <line class="st9" x1="1828.45" y1="1431.59" x2="1828.45" y2="2195.42"/>
  <line class="st9" x1="1828.45" y1="2195.42" x2="1571.45" y2="2195.42"/>
  <polygon class="st5" points="1587.08 2189.17 1571.45 2195.42 1587.08 2201.67 1580.83 2195.42 1587.08 2189.17"/>
  <line class="st9" x1="1552.7" y1="1233.72" x2="1552.7" y2="1325.12"/>
  <polygon class="st5" points="1546.45 1309.49 1552.7 1325.12 1558.95 1309.49 1552.7 1315.74 1546.45 1309.49"/>
  <line class="st9" x1="1160.11" y1="2549.76" x2="1160.11" y2="2581.02"/>
  <polygon class="st5" points="1153.86 2565.39 1160.11 2581.02 1166.36 2565.39 1160.11 2571.64 1153.86 2565.39"/>
  <line class="st9" x1="1160.11" y1="2634.35" x2="1160.11" y2="2665.61"/>
  <polygon class="st5" points="1153.86 2649.98 1160.11 2665.61 1166.36 2649.98 1160.11 2656.23 1153.86 2649.98"/>
  <line class="st9" x1="1498.21" y1="2549.76" x2="1498.21" y2="2581.02"/>
  <polygon class="st5" points="1491.96 2565.39 1498.21 2581.02 1504.46 2565.39 1498.21 2571.64 1491.96 2565.39"/>
  <line class="st9" x1="1249.22" y1="2462.04" x2="1160.11" y2="2462.04"/>
  <line class="st9" x1="1160.11" y1="2462.04" x2="1160.11" y2="2496.42"/>
  <polygon class="st5" points="1153.86 2480.8 1160.11 2496.42 1166.36 2480.8 1160.11 2487.05 1153.86 2480.8"/>
  <line class="st9" x1="1409.1" y1="2462.04" x2="1498.21" y2="2462.04"/>
  <line class="st9" x1="1498.21" y1="2462.04" x2="1498.21" y2="2496.42"/>
  <polygon class="st5" points="1491.96 2480.8 1498.21 2496.42 1504.46 2480.8 1498.21 2487.05 1491.96 2480.8"/>
  <line class="st9" x1="1160.11" y1="2718.95" x2="1160.11" y2="2753.33"/>
  <line class="st9" x1="1160.11" y1="2753.33" x2="1533.95" y2="2753.33"/>
  <polygon class="st5" points="1518.33 2747.08 1533.95 2753.33 1518.33 2759.58 1524.58 2753.33 1518.33 2747.08"/>
  <line class="st9" x1="1329.16" y1="2412.04" x2="1329.16" y2="2443.29"/>
  <polygon class="st5" points="1322.91 2427.67 1329.16 2443.29 1335.41 2427.67 1329.16 2433.92 1322.91 2427.67"/>
  <line class="st9" x1="1433.56" y1="2324.32" x2="1329.16" y2="2324.32"/>
  <line class="st9" x1="1329.16" y1="2324.32" x2="1329.16" y2="2358.7"/>
  <polygon class="st5" points="1322.91 2343.07 1329.16 2358.7 1335.41 2343.07 1329.16 2349.32 1322.91 2343.07"/>
  <line class="st9" x1="1671.84" y1="2324.32" x2="1776.24" y2="2324.32"/>
  <line class="st9" x1="1776.24" y1="2324.32" x2="1776.24" y2="2358.7"/>
  <polygon class="st5" points="1769.99 2343.07 1776.24 2358.7 1782.49 2343.07 1776.24 2349.32 1769.99 2343.07"/>
  <line class="st9" x1="1776.24" y1="2412.04" x2="1776.24" y2="2753.33"/>
  <line class="st9" x1="1776.24" y1="2753.33" x2="1571.45" y2="2753.33"/>
  <polygon class="st5" points="1587.08 2747.08 1571.45 2753.33 1587.08 2759.58 1580.83 2753.33 1587.08 2747.08"/>
  <line class="st9" x1="1552.7" y1="2214.17" x2="1552.7" y2="2305.57"/>
  <polygon class="st5" points="1546.45 2289.94 1552.7 2305.57 1558.95 2289.94 1552.7 2296.19 1546.45 2289.94"/>
  <line class="st9" x1="1719.47" y1="3045.7" x2="1719.47" y2="3076.95"/>
  <polygon class="st5" points="1713.22 3061.33 1719.47 3076.95 1725.72 3061.33 1719.47 3067.58 1713.22 3061.33"/>
  <line class="st9" x1="1472.76" y1="2957.98" x2="1385.94" y2="2957.98"/>
  <line class="st9" x1="1385.94" y1="2957.98" x2="1385.94" y2="2992.36"/>
  <polygon class="st5" points="1379.69 2976.74 1385.94 2992.36 1392.19 2976.74 1385.94 2982.99 1379.69 2976.74"/>
  <line class="st9" x1="1632.64" y1="2957.98" x2="1719.47" y2="2957.98"/>
  <line class="st9" x1="1719.47" y1="2957.98" x2="1719.47" y2="2992.36"/>
  <polygon class="st5" points="1713.22 2976.74 1719.47 2992.36 1725.72 2976.74 1719.47 2982.99 1713.22 2976.74"/>
  <line class="st9" x1="1385.94" y1="3045.7" x2="1385.94" y2="3116.02"/>
  <line class="st9" x1="1385.94" y1="3116.02" x2="1552.7" y2="3116.02"/>
  <line class="st9" x1="1552.7" y1="3116.02" x2="1552.7" y2="3139.46"/>
  <polygon class="st5" points="1546.45 3123.83 1552.7 3139.46 1558.95 3123.83 1552.7 3130.09 1546.45 3123.83"/>
  <line class="st9" x1="1552.7" y1="2900.98" x2="1552.7" y2="2939.23"/>
  <polygon class="st5" points="1546.45 2923.6 1552.7 2939.23 1558.95 2923.6 1552.7 2929.85 1546.45 2923.6"/>
  <line class="st9" x1="1669.24" y1="2882.23" x2="1910.53" y2="2882.23"/>
  <polygon class="st5" points="1904.28 3024.5 1910.53 3040.13 1916.78 3024.5 1910.53 3030.75 1904.28 3024.5"/>
  <line class="st9" x1="1910.53" y1="2882.23" x2="1910.53" y2="3158.21"/>
  <line class="st9" x1="1910.53" y1="3158.21" x2="1571.45" y2="3158.21"/>
  <polygon class="st5" points="1587.08 3151.96 1571.45 3158.21 1587.08 3164.46 1580.83 3158.21 1587.08 3151.96"/>
  <line class="st9" x1="1552.7" y1="2772.08" x2="1552.7" y2="2863.48"/>
  <polygon class="st5" points="1546.45 2847.85 1552.7 2863.48 1558.95 2847.85 1552.7 2854.1 1546.45 2847.85"/>
  <line class="st9" x1="1552.7" y1="3176.97" x2="1552.7" y2="3226.97"/>
  <polygon class="st5" points="1546.45 3211.34 1552.7 3226.97 1558.95 3211.34 1552.7 3217.6 1546.45 3211.34"/>
</svg>